HIERARCHY
ROOT Hips
{
	OFFSET 0.00000 0.00000 0.00000
	CHANNELS 6 Xposition Yposition Zposition Zrotation Yrotation Xrotation 
	JOINT LHipJoint
	{
		OFFSET 0 0 0
		CHANNELS 3 Zrotation Yrotation Xrotation
		JOINT LeftHip
		{
			OFFSET 1.37590 -1.78394 0.89329
			CHANNELS 3 Zrotation Yrotation Xrotation
			JOINT LeftKnee
			{
				OFFSET 2.47928 -6.81178 0.00000
				CHANNELS 3 Zrotation Yrotation Xrotation
				JOINT LeftAnkle
				{
					OFFSET 2.63345 -7.23535 0.00000
					CHANNELS 3 Zrotation Yrotation Xrotation
					JOINT LeftToe
					{
						OFFSET 0.23938 -0.65768 2.27012
						CHANNELS 3 Zrotation Yrotation Xrotation
						End Site
						{
							OFFSET 0.00000 -0.00000 1.18363
						}
					}
				}
			}
		}
	}
	JOINT RHipJoint
	{
		OFFSET 0 0 0
		CHANNELS 3 Zrotation Yrotation Xrotation
		JOINT RightHip
		{
			OFFSET -1.33617 -1.78394 0.89329
			CHANNELS 3 Zrotation Yrotation Xrotation
			JOINT RightKnee
			{
				OFFSET -2.56922 -7.05888 0.00000
				CHANNELS 3 Zrotation Yrotation Xrotation
				JOINT RightAnkle
				{
					OFFSET -2.56568 -7.04915 0.00000
					CHANNELS 3 Zrotation Yrotation Xrotation
					JOINT RightToe
					{
						OFFSET -0.27533 -0.75646 2.18105
						CHANNELS 3 Zrotation Yrotation Xrotation
						End Site
						{
							OFFSET -0.00000 -0.00000 1.15233
						}
					}
				}
			}
		}
	}
	JOINT lowerback
	{
		OFFSET 0 0 0
		CHANNELS 3 Zrotation Yrotation Xrotation
		JOINT Chest
		{
			OFFSET 0.06190 2.15152 -0.00935
			CHANNELS 3 Zrotation Yrotation Xrotation
			JOINT Chest2
			{
				OFFSET 0.06334 2.15332 0.00872
				CHANNELS 3 Zrotation Yrotation Xrotation
				JOINT lowerneck
				{
					OFFSET 0 0 0
					CHANNELS 3 Zrotation Yrotation Xrotation
					JOINT Neck
					{
						OFFSET -0.04202 1.66908 0.23524
						CHANNELS 3 Zrotation Yrotation Xrotation
						JOINT Head
						{
							OFFSET 0.07510 1.69357 -0.24440
							CHANNELS 3 Zrotation Yrotation Xrotation
							End Site
							{
								OFFSET 0.02556 1.71719 -0.11000
							}
						}
					}
				}
				JOINT LeftCollar
				{
					OFFSET 0 0 0
					CHANNELS 3 Zrotation Yrotation Xrotation
					JOINT LeftShoulder
					{
						OFFSET 3.67168 1.26306 -0.41342
CHANNELS 3 Zrotation Xrotation Yrotation
						JOINT LeftElbow
						{
OFFSET 0 -4.685100 -0.000000
CHANNELS 3 Zrotation Xrotation Yrotation
							JOINT LeftWrist
							{
OFFSET 0 -3.396260 -0.000000
CHANNELS 3 Zrotation Xrotation Yrotation
								JOINT lhand
								{
									OFFSET 0 0 0
CHANNELS 3 Zrotation Xrotation Yrotation
									JOINT LFingers
									{
OFFSET 0 -0.486080 -0.000000
CHANNELS 3 Zrotation Xrotation Yrotation
										End Site
										{
OFFSET 0 -0.391890 -0.000000
										}
									}
								}
								JOINT LThumb
								{
OFFSET 0 0.000000 0.000000
CHANNELS 3 Zrotation Xrotation Yrotation
									End Site
									{
OFFSET 0 -0.397870 0.397870
									}
								}
							}
						}
					}
				}
				JOINT RightCollar
				{
					OFFSET 0 0 0
					CHANNELS 3 Zrotation Yrotation Xrotation
					JOINT RightShoulder
					{
						OFFSET -3.04136 1.42992 -0.76390
CHANNELS 3 Zrotation Xrotation Yrotation
						JOINT RightElbow
						{
OFFSET 0 -5.555760 -0.000000
CHANNELS 3 Zrotation Xrotation Yrotation
							JOINT RightWrist
							{
OFFSET 0 -3.327740 -0.000000
CHANNELS 3 Zrotation Xrotation Yrotation
								JOINT rhand
								{
									OFFSET 0 0 0
CHANNELS 3 Zrotation Xrotation Yrotation
									JOINT RFingers
									{
OFFSET 0 -0.507630 -0.000000
CHANNELS 3 Zrotation Xrotation Yrotation
										End Site
										{
OFFSET 0 -0.409260 -0.000000
										}
									}
								}
								JOINT RThumb
								{
OFFSET 0 0.000000 0.000000
CHANNELS 3 Zrotation Xrotation Yrotation
									End Site
									{
OFFSET 0 -0.415510 0.415510
									}
								}
							}
						}
					}
				}
			}
		}
	}
}
MOTION
Frames: 4
Frame Time: 0.008333333333333333
42.735700 17.797200 6.643400 -99.016800 -84.262900 108.139000 0.000000 0.000000 0.000000 -12.131500 -4.642400 -6.286800 0.256500 3.258400 8.998900 0.250300 -2.856000 -8.895500 0.069200 1.697200 4.669600 0.000000 0.000000 0.000000 26.052300 5.677200 -10.667000 -0.781300 -5.643200 15.752500 0.186000 -11.551100 -13.464500 -0.417000 -4.144900 11.484600 3.995200 -0.794800 -4.474500 3.585000 -1.342900 -2.307300 1.384700 -0.730700 0.131700 -5.513500 -4.426800 -17.616500 5.326800 -5.427500 10.578100 2.024100 -2.415900 6.383800 -0.000000 0.000000 0.000000 -1.585100 -0.141900 -5.020400 13.064500 -21.381700 2.476800 13.541600 35.284500 -21.098000 0.000000 0.000000 0.000000 -7.125000 0.000000 0.000000 -15.162600 51.000100 2.286300 -0.000000 0.000000 0.000000 -4.167100 -4.748600 -13.272600 -10.600300 -17.673000 -1.652500 -1.819900 3.785300 29.167200 0.000000 0.000000 0.000000 7.125000 0.000000 -0.000000 31.286800 56.270300 -9.284700
42.729681 17.794320 6.648139 -101.523426 -84.215122 110.855129 0.000000 0.000000 0.000000 -12.161204 -4.750718 -6.406507 0.254241 3.244406 8.959875 0.257638 -2.552378 -9.044681 0.062100 1.607622 4.422346 0.000000 0.000000 0.000000 26.120072 6.244599 -10.207853 -0.705533 -5.368209 14.961880 0.234791 -12.029493 -13.419024 -0.443994 -4.275271 11.852478 4.187109 -0.641744 -5.061609 3.370336 -1.188432 -2.121803 1.052285 -0.645048 0.642589 -6.952273 -4.272814 -19.317916 7.855084 -5.259631 12.109477 3.084834 -2.139519 7.270935 0.000000 0.000000 0.000000 -1.501495 -1.106928 -4.865978 12.796802 -20.988611 2.380082 13.471095 36.229433 -21.336068 0.000000 0.000000 0.000000 -7.125000 0.000000 0.000000 -15.331523 51.221228 2.397377 0.000000 0.000000 0.000000 -4.085508 -6.148133 -11.611821 -10.579572 -17.640976 -1.646251 -2.506833 4.871001 28.415402 0.000000 0.000000 0.000000 7.125000 0.000000 0.000000 30.046064 55.763344 -8.483995
42.723322 17.797918 6.653058 -104.803855 -84.012680 114.241414 0.000000 0.000000 0.000000 -12.081528 -4.833623 -6.355900 0.249721 3.215548 8.879382 0.268397 -2.087380 -9.283618 0.057019 1.540905 4.238418 0.000000 0.000000 0.000000 26.324407 6.707130 -9.773453 -0.649397 -5.154646 14.350148 0.271970 -12.311079 -13.239535 -0.459537 -4.348585 12.059517 4.474855 -0.511277 -5.203559 3.209441 -1.032048 -2.214706 0.733856 -0.570044 0.619530 -6.872327 -4.323381 -19.616056 7.902706 -5.370054 12.561795 3.073258 -2.174088 7.477402 0.000000 0.000000 0.000000 -1.478527 -1.524359 -4.537393 12.543264 -20.614193 2.290111 13.552868 36.910991 -20.893514 0.000000 0.000000 0.000000 -7.125000 0.000000 0.000000 -15.066420 50.801835 2.197023 0.000000 0.000000 0.000000 -4.009136 -6.792827 -8.864200 -10.755839 -17.912997 -1.700108 -2.509483 4.675604 27.833424 0.000000 0.000000 0.000000 7.125000 0.000000 0.000000 29.609364 55.261099 -7.970052
42.717644 17.804875 6.656777 -107.992980 -83.735639 117.537526 0.000000 0.000000 0.000000 -11.939346 -4.976243 -6.257038 0.244364 3.181087 8.783294 0.279938 -1.581081 -9.567996 0.069006 1.694555 4.662147 0.000000 0.000000 0.000000 26.536149 7.009424 -9.475044 -0.604461 -4.976345 13.841202 0.282978 -12.319956 -13.037327 -0.482239 -4.452923 12.354486 4.725645 -0.372143 -5.709359 3.132168 -0.898525 -2.170961 0.515820 -0.500065 0.943753 -6.906076 -4.333171 -19.396185 7.951954 -5.394500 12.522792 3.093863 -2.188533 7.432158 0.000000 0.000000 0.000000 -1.602617 -2.020181 -4.287589 12.352723 -20.331413 2.223342 13.797900 37.535130 -21.235873 0.000000 0.000000 0.000000 -7.125000 0.000000 0.000000 -14.974374 51.176748 2.322556 0.000000 0.000000 0.000000 -4.028592 -7.505904 -6.145168 -10.951169 -18.213269 -1.760685 -2.250043 4.218327 27.222383 0.000000 0.000000 0.000000 7.125000 0.000000 0.000000 29.413745 54.681683 -7.480633
